#N canvas 23 84 372 561 10;
#X obj 217 139 vsl 15 128 0 255 0 0 empty empty empty 0 -8 0 10 -262144
-1 -1 4100 1;
#X obj 235 139 vsl 15 128 0 255 0 0 empty empty empty 0 -8 0 10 -262144
-1 -1 8600 1;
#X obj 253 139 vsl 15 128 0 255 0 0 empty empty empty 0 -8 0 10 -262144
-1 -1 9200 1;
#X msg 218 447 disconnect;
#X obj 27 482 netsend;
#X floatatom 27 505 5 0 0 0 - - -;
#X obj 27 447 r out;
#X obj 218 413 r connect;
#X obj 217 376 s out;
#X text 38 85 2 Click the red button once;
#X text 38 99 3 Play with the sliders;
#X msg 235 311 send two \$1;
#X msg 217 331 send one \$1;
#X msg 253 291 send three \$1;
#X obj 33 145 bng 30 250 50 0 empty empty empty 0 -6 0 10 -261234 -1
-1;
#X obj 33 185 s connect;
#X text 9 7 Controlling a Shoebot script via netsend;
#X text 39 46 1 Run examples/socketcontrol.bot with Shoebot;
#X text 57 65 sbot -ws examples/socketcontrol.bot;
#X msg 72 446 connect localhost 7777;
#X connect 0 0 12 0;
#X connect 1 0 11 0;
#X connect 2 0 13 0;
#X connect 3 0 4 0;
#X connect 4 0 5 0;
#X connect 6 0 4 0;
#X connect 7 0 3 0;
#X connect 7 0 19 0;
#X connect 11 0 8 0;
#X connect 12 0 8 0;
#X connect 13 0 8 0;
#X connect 14 0 15 0;
#X connect 19 0 4 0;
