#N canvas 377 279 958 1000 10;
#X obj 216 139 vsl 15 128 0 255 0 0 \$1 empty empty 0 -8 0 10 #ffc0c0
#000000 #000000 7650 1 0;
#X obj 235 139 vsl 15 128 0 255 0 0 empty empty empty 0 -8 0 10 #beffb7
#000000 #000000 7750 1 0;
#X obj 254 139 vsl 15 128 0 255 0 0 \$1 empty empty 0 -8 0 10 #d9d9ff
#000000 #000000 8650 1 0;
#X msg 218 447 disconnect;
#X obj 27 482 netsend;
#X floatatom 27 505 5 0 0 0 - - - 0 0, f 5;
#X obj 27 447 r out;
#X obj 218 413 r connect;
#X obj 217 376 s out;
#X text 38 85 2 Click the red button once;
#X text 38 99 3 Play with the sliders;
#X obj 33 145 bng 30 250 50 0 empty empty empty 0 -6 0 10 #fcc4c4 #000000
#000000;
#X obj 33 185 s connect;
#X text 9 7 Controlling a Shoebot script via netsend;
#X text 39 46 1 Run examples/helloworld.bot with Shoebot;
#X msg 72 446 connect localhost 7777;
#X msg 254 287 send blue = \$1;
#X msg 235 311 send green = \$1;
#X msg 217 334 send red = \$1;
#X text 57 65 sbot -s -dv examples/helloworld.bot;
#X connect 0 0 18 0;
#X connect 1 0 17 0;
#X connect 2 0 16 0;
#X connect 3 0 4 0;
#X connect 4 0 5 0;
#X connect 6 0 4 0;
#X connect 7 0 3 0;
#X connect 7 0 15 0;
#X connect 11 0 12 0;
#X connect 15 0 4 0;
#X connect 16 0 8 0;
#X connect 17 0 8 0;
#X connect 18 0 8 0;
