#N canvas 300 146 370 561 10;
#X obj 217 139 vsl 15 128 0 255 0 0 empty empty empty 0 -8 0 10 -262144
-1 -1 3350 1;
#X obj 235 139 vsl 15 128 0 255 0 0 empty empty empty 0 -8 0 10 -262144
-1 -1 3800 1;
#X obj 253 139 vsl 15 128 0 255 0 0 empty empty empty 0 -8 0 10 -262144
-1 -1 4700 1;
#X msg 72 446 connect localhost 7777;
#X msg 218 447 disconnect;
#X obj 27 482 netsend;
#X floatatom 27 505 5 0 0 0 - - -;
#X obj 27 447 r out;
#X obj 218 413 r connect;
#X obj 217 376 s out;
#X text 30 71 1 Run pdcontrol.py with Shoebox;
#X text 29 86 2 Click the red button once;
#X text 29 100 3 Play with the sliders;
#X text 30 30 Controlling a shoebox script via netsend;
#X msg 235 311 send two \$1;
#X msg 217 331 send one \$1;
#X msg 253 291 send three \$1;
#X connect 0 0 15 0;
#X connect 1 0 14 0;
#X connect 2 0 16 0;
#X connect 3 0 5 0;
#X connect 4 0 5 0;
#X connect 5 0 6 0;
#X connect 7 0 5 0;
#X connect 8 0 4 0;
#X connect 8 0 3 0;
#X connect 14 0 9 0;
#X connect 15 0 9 0;
#X connect 16 0 9 0;
